<?xml version="1.0" standalone="no"?>
<svg version="1.0" xmlns="http://www.w3.org/2000/svg" width="80pt" height="80pt" viewBox="0 0 350 400" preserveAspectRatio="xMidYMid meet">
<g transform="translate(-600,600) scale(0.1,-0.1)" fill="#000000" stroke="none">
<path d="M6090 5851 c0 -5 -13 -12 -30 -16 -51 -11 -194 -114 -179 -129 2 -3
132 -8 288 -12 271 -7 286 -8 307 -28 47 -46 2646 -2642 2747 -2744 l107 -109
0 -261 c0 -143 4 -263 8 -266 16 -10 81 69 121 148 l41 79 0 733 c0 638 -2
735 -15 748 -8 8 -15 20 -15 27 0 20 -77 113 -148 179 -37 34 -240 234 -452
443 -1077 1067 -1185 1171 -1234 1187 -20 6 -36 16 -36 21 0 5 -301 9 -755 9
-453 0 -755 -4 -755 -9z"/>
</g>
</svg>